HIERARCHY
ROOT SpineBase
{
  OFFSET 0.000000 0.000000 0.000000
  CHANNELS 6 Xposition Yposition Zposition Zrotation Xrotation Yrotation
  JOINT SpineMid
  {
    OFFSET 0.000000 29.817772 0.000000
    CHANNELS 3 Zrotation Xrotation Yrotation
    JOINT SpineShoulder
    {
      OFFSET 0.119073 22.198064 -0.701553
      CHANNELS 3 Zrotation Xrotation Yrotation
      JOINT Neck
      {
        OFFSET 0.084035 7.353838 -0.527238
        CHANNELS 3 Zrotation Xrotation Yrotation
        JOINT Head
        {
          OFFSET -2.919551 13.337824 -1.845931
          CHANNELS 3 Zrotation Xrotation Yrotation
          End Site
          {
            OFFSET 0 0 0
          }
        }
      }
      JOINT ShoulderLeft
      {
        OFFSET -16.731943 -4.513616 0.813167
        CHANNELS 3 Zrotation Xrotation Yrotation
        JOINT ElbowLeft
        {
          OFFSET -2.897505 -27.303793 4.088002
          CHANNELS 3 Zrotation Xrotation Yrotation
          JOINT WristLeft
          {
            OFFSET -0.123120 -20.384254 -4.947066
            CHANNELS 3 Zrotation Xrotation Yrotation
            JOINT HandLeft
            {
              OFFSET 0.281631 -2.278091 -1.066145
              CHANNELS 3 Zrotation Xrotation Yrotation
              JOINT HandTipLeft
              {
                OFFSET 0.188160 -5.614750 -1.181910
                CHANNELS 3 Zrotation Xrotation Yrotation
                End Site
                {
                  OFFSET 0 0 0
                }
              }
              JOINT ThumbLeft
              {
                OFFSET 2.149324 -0.406205 -2.533627
                CHANNELS 3 Zrotation Xrotation Yrotation
                End Site
                {
                  OFFSET 0 0 0
                }
              }
            }
          }
        }
      }
      JOINT ShoulderRight
      {
        OFFSET 15.397160 -3.238813 -5.177009
        CHANNELS 3 Zrotation Xrotation Yrotation
        JOINT ElbowRight
        {
          OFFSET 5.167619 -25.045528 0.558857
          CHANNELS 3 Zrotation Xrotation Yrotation
          JOINT WristRight
          {
            OFFSET -5.292371 -19.752880 -1.965344
            CHANNELS 3 Zrotation Xrotation Yrotation
            JOINT HandRight
            {
              OFFSET -1.333499 -6.044872 -1.184122
              CHANNELS 3 Zrotation Xrotation Yrotation
              JOINT HandTipRight
              {
                OFFSET -2.686380 -6.632817 -0.860675
                CHANNELS 3 Zrotation Xrotation Yrotation
                End Site
                {
                  OFFSET 0 0 0
                }
              }
              JOINT ThumbRight
              {
                OFFSET -3.849229 1.769906 -3.678389
                CHANNELS 3 Zrotation Xrotation Yrotation
                End Site
                {
                  OFFSET 0 0 0
                }
              }
            }
          }
        }
      }
    }
  }
  JOINT HipLeft
  {
    OFFSET -6.588295 0.525249 -2.388088
    CHANNELS 3 Zrotation Xrotation Yrotation
    JOINT KneeLeft
    {
      OFFSET -2.515125 -26.798042 -0.022927
      CHANNELS 3 Zrotation Xrotation Yrotation
      JOINT AnkleLeft
      {
        OFFSET 0.615548 -35.498859 9.136097
        CHANNELS 3 Zrotation Xrotation Yrotation
        JOINT FootLeft
        {
          OFFSET -0.768572 -4.648108 -10.748628
          CHANNELS 3 Zrotation Xrotation Yrotation
          End Site
          {
            OFFSET 0 0 0
          }
        }
      }
    }
  }
  JOINT HipRight
  {
    OFFSET 7.533148 1.019107 -3.999134
    CHANNELS 3 Zrotation Xrotation Yrotation
    JOINT KneeRight
    {
      OFFSET 5.190862 -27.028302 2.873626
      CHANNELS 3 Zrotation Xrotation Yrotation
      JOINT AnkleRight
      {
        OFFSET -1.269248 -35.872785 13.441111
        CHANNELS 3 Zrotation Xrotation Yrotation
        JOINT FootRight
        {
          OFFSET -0.653391 -4.899087 -9.905267
          CHANNELS 3 Zrotation Xrotation Yrotation
          End Site
          {
            OFFSET 0 0 0
          }
        }
      }
    }
  }
}
MOTION
Frames: 9
Frame Time: 0.033333
-57.794059 72.775427 380.809783 -0.715591 0.025026 8.480518 0.704078 -0.130278 -8.479562 -0.000000 0.000000 0.000000 -0.000000 0.000000 0.000000 0.000000 0.000000 0.000000 -0.000000 0.000000 0.000000 0.090597 -1.293262 -0.013189 1.874672 -0.746958 -1.173661 -8.252536 5.199928 3.010147 0.000000 0.000000 0.000000 0.000000 0.000000 0.000000 -9.275530 -1.863345 -0.755450 27.836472 5.361270 -3.655404 -32.531088 -11.450078 4.503060 46.040346 1.356006 -11.256860 0.000000 0.000000 0.000000 0.000000 0.000000 0.000000 1.822067 -0.244036 -8.481785 -0.814537 -1.343840 0.065777 3.541012 -33.234018 -7.441916 0.000000 0.000000 0.000000 -1.299512 0.032027 -8.721235 3.749822 -0.357310 0.910934 1.148372 -26.424402 -4.887177 0.000000 0.000000 0.000000
-57.899877 72.794497 380.825411 -0.803099 0.018540 8.609152 0.791277 -0.138544 -8.608065 -0.000000 0.000000 0.000000 -0.237021 -0.861470 -0.223027 0.000000 0.000000 0.000000 -0.000000 0.000000 0.000000 0.159852 -1.770946 -0.025723 1.709452 3.686549 -0.689484 -9.036512 3.701124 2.391761 0.000000 0.000000 0.000000 0.000000 0.000000 0.000000 -10.017356 -1.439309 -0.658955 29.224332 4.336789 -3.403124 -32.615408 -12.710856 4.806563 47.474506 -0.038014 -11.233881 0.000000 0.000000 0.000000 0.000000 0.000000 0.000000 2.025975 -0.296919 -8.607085 -0.985663 -1.501894 0.047747 3.722400 -36.948462 -7.779046 0.000000 0.000000 0.000000 -1.276295 0.106290 -8.843669 4.063441 -0.234284 0.989841 2.817656 -22.014989 -11.422893 0.000000 0.000000 0.000000
-58.008763 72.817979 380.834719 -0.898660 0.023706 8.769601 0.884542 -0.160432 -8.768176 -0.000000 0.000000 0.000000 -0.277143 -1.067912 -0.274495 0.000000 0.000000 0.000000 -0.000000 0.000000 0.000000 0.216704 -2.147196 -0.035724 2.455486 11.619103 -0.338513 -10.028607 -3.035252 0.792840 0.000000 0.000000 0.000000 0.000000 0.000000 0.000000 -10.843718 -1.149120 -0.600482 30.459496 3.926072 -3.339719 -31.131505 -13.395972 4.873399 44.079133 0.204920 -10.581610 0.000000 0.000000 0.000000 0.000000 0.000000 0.000000 2.214210 -0.352440 -8.764584 -1.118436 -1.655166 0.034759 3.505814 -33.888550 -6.263978 0.000000 0.000000 0.000000 -1.084354 0.108134 -8.987728 4.055970 -0.067315 0.997978 3.593188 -26.124060 -14.732553 0.000000 0.000000 0.000000
-58.115165 72.838774 380.844974 -0.981457 0.026845 8.940793 0.965364 -0.179040 -8.939054 -0.000000 0.000000 0.000000 -0.296165 -1.239160 -0.315151 0.000000 0.000000 0.000000 -0.000000 0.000000 0.000000 0.222907 -2.437733 -0.034809 2.115512 21.909436 0.816611 -10.676009 -10.411220 -1.822622 0.000000 0.000000 0.000000 0.000000 0.000000 0.000000 -11.273246 -0.820308 -0.512941 31.036397 3.760185 -3.353388 -27.662811 -14.721162 4.939024 41.184490 -1.958125 -8.262604 0.000000 0.000000 0.000000 0.000000 0.000000 0.000000 2.398126 -0.421804 -8.931163 -1.118733 -1.519527 0.063397 3.457302 -35.001154 -6.631507 0.000000 0.000000 0.000000 -0.720581 0.059484 -9.127434 3.726880 0.064949 0.942677 3.278359 -22.737383 -12.977659 0.000000 0.000000 0.000000
-58.200550 72.849620 380.853402 -1.032868 0.034139 9.083694 1.014529 -0.196763 -9.081645 -0.000000 0.000000 0.000000 -0.321220 -1.393925 -0.353120 0.000000 0.000000 0.000000 -0.000000 0.000000 0.000000 0.307200 -2.486574 -0.053147 1.586486 29.755446 1.860725 -11.409329 -16.094168 -4.033317 0.000000 0.000000 0.000000 0.000000 0.000000 0.000000 -11.695233 -0.740670 -0.501068 31.178936 3.556877 -3.226291 -22.349524 -13.229251 4.540861 35.361960 -2.813527 -5.306803 0.000000 0.000000 0.000000 0.000000 0.000000 0.000000 2.533724 -0.510342 -9.067021 -0.999558 -1.187665 0.120481 3.443594 -38.230539 -8.303045 0.000000 0.000000 0.000000 -0.413389 0.013192 -9.241230 3.408626 0.199329 0.884692 4.233279 -23.768482 -15.818440 0.000000 0.000000 0.000000
-58.255154 72.851486 380.860228 -1.051470 0.036310 9.180760 1.032212 -0.203592 -9.178593 -0.000000 0.000000 0.000000 -0.370573 -1.490802 -0.382033 0.000000 0.000000 0.000000 -0.000000 0.000000 0.000000 0.349525 -2.470846 -0.062692 -0.371850 32.367022 3.434869 -9.163828 -17.683703 -4.816723 0.000000 0.000000 0.000000 0.000000 0.000000 0.000000 -12.002744 -1.127166 -0.633480 30.626703 3.332223 -2.900829 -16.607474 -8.483053 3.201048 27.713261 -5.806027 -0.185069 0.000000 0.000000 0.000000 0.000000 0.000000 0.000000 2.616119 -0.591716 -9.156714 -0.989479 -0.884499 0.140916 3.381758 -38.467820 -8.710647 0.000000 0.000000 0.000000 0.005311 0.023216 -9.280484 2.837409 0.157413 0.762464 3.304377 -27.569621 -12.530655 0.000000 0.000000 0.000000
-58.293555 72.852779 380.868806 -1.076672 0.025219 9.220081 0.256498 -0.014671 -9.245734 0.821161 -0.051459 0.026598 -0.255221 -1.524078 -0.371841 0.000000 0.000000 0.000000 -0.000000 0.000000 0.000000 0.349952 -2.417363 -0.063269 -0.085714 30.897579 3.092376 -7.995716 -14.587935 -3.986985 0.000000 0.000000 0.000000 0.000000 0.000000 0.000000 -12.946450 -1.259876 -0.709457 31.116722 3.018819 -2.648660 -11.931109 -6.508067 2.262044 23.797215 -6.648417 1.816248 0.000000 0.000000 0.000000 0.000000 0.000000 0.000000 2.641033 -0.649373 -9.189605 -0.861486 -0.815814 0.171226 3.105486 -34.139203 -8.213594 0.000000 0.000000 0.000000 1.058726 -0.197391 -9.218020 1.517088 0.109287 0.563615 3.195543 -33.640835 -11.404726 0.000000 0.000000 0.000000
-58.313100 72.842332 380.884226 -1.108731 -0.004342 9.250799 0.264231 -0.030743 -9.277346 0.842999 -0.007399 0.026738 -0.231727 -1.503788 -0.363798 0.000000 0.000000 0.000000 -0.000000 0.000000 0.000000 0.316651 -2.316145 -0.056735 0.367457 26.370130 2.351918 -7.908417 -11.248325 -2.914884 0.000000 0.000000 0.000000 0.000000 0.000000 0.000000 -13.661122 -1.233647 -0.726374 31.517634 2.709044 -2.460312 -7.985900 -5.655928 1.559560 19.863749 -7.339373 3.459584 0.000000 0.000000 0.000000 0.000000 0.000000 0.000000 2.660338 -0.643375 -9.219488 -0.721325 -0.781959 0.202636 2.063917 -22.605824 -5.165363 0.000000 0.000000 0.000000 1.095013 -0.173940 -9.249178 1.233128 -0.101617 0.466766 3.775724 -28.916847 -11.853877 0.000000 0.000000 0.000000
-58.310597 72.817001 380.897505 -1.048693 -0.025686 9.247532 1.039193 -0.143168 -9.246469 -0.000000 0.000000 0.000000 -0.475506 -1.480617 -0.395718 0.000000 0.000000 0.000000 -0.000000 0.000000 0.000000 0.213865 -1.948957 -0.036644 2.547190 19.336792 0.377023 -10.416463 -7.136222 -0.974797 0.000000 0.000000 0.000000 0.000000 0.000000 0.000000 -14.027208 -1.074613 -0.685766 31.732623 2.405119 -2.333095 -4.725641 -6.273632 1.367091 15.487062 -5.676341 3.240768 0.000000 0.000000 0.000000 0.000000 0.000000 0.000000 2.572275 -0.594427 -9.219240 -0.592330 -0.790938 0.228478 0.769305 -13.180310 -2.573492 0.000000 0.000000 0.000000 1.039193 -0.143168 -9.246469 0.952737 -0.336536 0.371392 4.029753 -30.849443 -11.678613 0.000000 0.000000 0.000000
